<?xml version="1.0" standalone="no"?>
<!DOCTYPE svg PUBLIC "-//W3C//DTD SVG 20010904//EN"
 "http://www.w3.org/TR/2001/REC-SVG-20010904/DTD/svg10.dtd">
<svg version="1.0" xmlns="http://www.w3.org/2000/svg"
 width="512.000000pt" height="512.000000pt" viewBox="0 0 512.000000 512.000000"
 preserveAspectRatio="xMidYMid meet">

<g transform="translate(0.000000,512.000000) scale(0.100000,-0.100000)"
fill="#000000" stroke="none">
<path d="M4490 5111 c-47 -10 -90 -33 -121 -68 -53 -57 -384 -489 -407 -531
-21 -37 -24 -53 -20 -112 5 -90 39 -143 118 -183 45 -23 65 -28 110 -25 30 2
70 12 89 21 19 9 36 17 38 17 1 0 3 -87 3 -192 0 -106 5 -211 10 -232 14 -63
59 -118 120 -149 87 -45 184 -30 254 40 60 59 66 87 66 320 l0 213 40 -21 c92
-48 187 -33 260 40 66 66 86 149 57 231 -7 19 -106 159 -219 311 -179 241
-211 278 -249 296 -53 25 -102 33 -149 24z m277 -411 c105 -140 194 -265 197
-277 14 -52 -35 -101 -89 -87 -15 4 -47 37 -81 82 -69 93 -79 102 -120 102
-23 0 -39 -8 -53 -26 -20 -26 -21 -38 -21 -341 0 -202 -4 -321 -11 -334 -27
-51 -109 -43 -128 13 -7 20 -11 148 -11 343 0 285 -2 313 -17 327 -51 43 -85
30 -159 -64 -32 -40 -65 -78 -74 -85 -41 -33 -110 5 -110 60 0 23 42 83 191
276 106 135 199 252 208 259 9 7 32 12 51 10 33 -3 45 -17 227 -258z"/>
<path d="M870 4710 c-66 -22 -140 -96 -158 -157 -17 -58 -14 -155 7 -253 46
-205 161 -402 326 -558 l75 -72 0 -154 0 -154 -89 -71 c-314 -250 -550 -512
-712 -788 -303 -519 -396 -1094 -249 -1544 34 -102 123 -283 157 -316 29 -30
73 -30 101 0 31 33 27 66 -17 144 -231 401 -210 937 58 1488 164 335 394 608
764 905 l88 70 629 0 629 0 113 -92 c155 -126 430 -403 515 -518 72 -99 133
-192 133 -203 0 -4 -21 -26 -46 -49 -75 -70 -97 -123 -102 -257 -6 -138 7
-203 53 -272 l34 -50 -33 -49 c-42 -60 -56 -123 -56 -240 0 -118 14 -180 57
-241 l35 -51 -21 -22 c-11 -12 -30 -44 -43 -71 -21 -45 -23 -65 -23 -195 0
-138 1 -147 27 -196 14 -27 34 -56 42 -63 22 -19 21 -25 -19 -77 -19 -25 -38
-63 -41 -83 -8 -48 -10 -51 -64 -88 -164 -111 -430 -205 -710 -250 -164 -26
-786 -26 -965 0 -327 48 -585 143 -775 286 -73 55 -117 55 -146 -1 -23 -44 -5
-76 69 -130 178 -130 396 -220 659 -272 170 -34 260 -45 499 -57 534 -26 981
49 1319 222 97 50 109 50 110 3 0 -34 49 -121 88 -155 20 -18 56 -41 81 -53
45 -21 55 -21 786 -21 l740 0 57 28 c64 32 111 80 142 146 18 40 21 65 21 191
0 131 -2 149 -23 192 -13 25 -32 54 -43 64 -23 21 -24 37 -3 55 8 7 28 36 42
63 26 49 27 58 27 196 0 130 -2 150 -23 195 -13 27 -32 59 -43 71 l-21 22 35
51 c43 61 57 123 57 241 0 117 -14 180 -56 240 l-33 49 34 50 c46 69 59 134
53 272 -6 137 -25 187 -99 253 -73 65 -115 76 -296 76 -150 0 -155 -1 -178
-25 -14 -13 -25 -36 -25 -50 0 -14 11 -37 25 -50 23 -24 29 -25 167 -25 158 0
193 -10 232 -63 18 -25 21 -43 21 -145 0 -93 -4 -124 -18 -149 -35 -66 -2 -63
-792 -63 -793 0 -750 -3 -791 64 -16 26 -19 51 -19 148 0 102 3 120 21 145 46
63 47 63 500 63 387 0 413 1 435 19 32 26 32 86 0 112 -22 18 -47 19 -410 19
l-386 0 -57 93 c-151 247 -388 504 -685 742 l-83 66 0 155 0 154 83 83 c206
204 329 462 331 698 1 90 -1 98 -29 144 -40 64 -101 110 -165 124 -35 8 -340
11 -963 11 -868 -1 -915 -2 -967 -20z m1915 -144 c50 -21 69 -65 61 -140 -11
-92 -34 -172 -76 -263 -54 -116 -102 -185 -199 -285 l-84 -88 -638 0 -639 0
-69 68 c-167 165 -273 372 -288 564 -7 89 6 120 60 143 48 21 1822 22 1872 1z
m-365 -1051 l0 -115 -575 0 -575 0 0 115 0 115 575 0 575 0 0 -115z m2370
-1800 c62 -32 70 -55 70 -195 0 -114 -2 -130 -21 -154 -46 -58 -15 -56 -786
-56 -684 0 -709 1 -740 20 -47 28 -63 60 -70 138 -11 139 17 226 81 252 12 5
340 9 729 9 606 1 712 -1 737 -14z m7 -578 c56 -30 68 -66 68 -199 0 -102 -3
-120 -21 -145 -48 -66 -16 -63 -787 -63 -765 0 -743 -2 -787 60 -19 26 -24 49
-28 124 -5 97 7 160 36 195 40 50 46 51 792 48 643 -2 697 -3 727 -20z m-12
-571 c61 -26 75 -63 75 -205 l0 -123 -39 -39 -39 -39 -722 0 c-798 0 -755 -3
-796 64 -29 47 -28 236 1 286 43 73 8 70 788 70 585 0 703 -2 732 -14z"/>
<path d="M3476 4296 c-22 -8 -51 -23 -65 -34 -33 -24 -392 -480 -431 -547 -66
-112 -24 -251 93 -310 62 -31 125 -32 186 -5 24 11 45 20 46 20 2 0 5 -96 7
-213 3 -205 4 -214 28 -262 31 -60 100 -111 164 -120 65 -10 143 16 188 62 64
65 68 87 68 323 l0 210 43 -22 c118 -62 277 4 316 131 31 107 18 135 -219 450
-179 240 -214 281 -252 299 -59 29 -124 36 -172 18z m301 -406 c106 -140 195
-263 199 -273 9 -29 -15 -75 -45 -85 -42 -15 -74 5 -126 78 -60 84 -80 100
-120 100 -24 0 -39 -7 -54 -26 -20 -26 -21 -38 -21 -344 0 -294 -1 -319 -18
-341 -23 -27 -73 -30 -101 -5 -19 17 -20 35 -23 347 -3 313 -4 329 -23 348
-11 11 -33 23 -49 27 -25 6 -33 1 -80 -51 -130 -147 -140 -153 -190 -114 -53
42 -44 60 170 334 107 137 200 253 207 257 7 5 28 7 47 6 33 -3 45 -16 227
-258z"/>
<path d="M2075 2374 c-200 -43 -376 -183 -471 -375 l-34 -69 -91 0 c-82 0 -92
-2 -114 -25 -32 -31 -33 -74 -2 -103 20 -19 35 -22 98 -22 l75 0 -1 -74 0 -74
-78 -4 c-68 -3 -82 -6 -98 -27 -25 -30 -24 -76 1 -101 17 -17 33 -20 113 -20
l94 0 43 -87 c61 -123 179 -242 300 -301 111 -55 194 -75 308 -76 91 -1 94 0
118 27 54 63 4 137 -84 122 -57 -9 -192 19 -268 56 -79 39 -190 142 -223 206
-11 23 -21 45 -21 48 0 3 96 5 214 5 l215 0 20 26 c28 36 26 60 -8 95 l-29 29
-231 0 -231 0 0 75 0 75 241 2 242 3 20 27 c21 28 19 58 -7 93 -13 19 -28 20
-230 23 -119 2 -216 6 -216 9 0 18 68 108 118 156 92 87 233 146 350 147 51 0
92 34 92 75 0 14 -11 37 -25 50 -29 30 -88 32 -200 9z"/>
</g>
</svg>
